<?xml version="1.0" encoding="utf-8"?>
<!-- Generator: Adobe Illustrator 27.1.0, SVG Export Plug-In . SVG Version: 6.00 Build 0)  -->
<svg version="1.1" id="Capa_1" xmlns="http://www.w3.org/2000/svg" xmlns:xlink="http://www.w3.org/1999/xlink" x="0px" y="0px"
	 viewBox="0 0 960 960" enable-background="new 0 0 960 960" xml:space="preserve">
<polygon fill-rule="evenodd" clip-rule="evenodd" fill="#1C2A39" points="0,-2.784 960,-2.784 960,960 480,960 0,960 0,-2.784 "/>
<path fill="#FFFFFF" d="M172.027,256.271h121.773h61.068h207.768h69.534h69.531l-52.787,332.856h209.874l-18.021,114.602H491.82
	l49.556-313.116v-0.008l4.616-29.162h-4.616h-20.767H293.801h-80.436h-57.982L172.027,256.271L172.027,256.271z M524.914,390.613
	c4.038,94.337-82.625,203.997-250.519,205.601h-17.749l-17.017,107.515H101.211l34.035-215.037
	c50.119,0,100.245-0.069,150.365,0.045c85.426,0.244,129.156-60.467,98.731-98.124H524.914L524.914,390.613z"/>
</svg>
